G04 #@! TF.GenerationSoftware,KiCad,Pcbnew,(5.1.4-0-10_14)*
G04 #@! TF.CreationDate,2019-09-05T15:19:51-04:00*
G04 #@! TF.ProjectId,555_Badge,3535355f-4261-4646-9765-2e6b69636164,v01*
G04 #@! TF.SameCoordinates,Original*
G04 #@! TF.FileFunction,Copper,L1,Top*
G04 #@! TF.FilePolarity,Positive*
%FSLAX46Y46*%
G04 Gerber Fmt 4.6, Leading zero omitted, Abs format (unit mm)*
G04 Created by KiCad (PCBNEW (5.1.4-0-10_14)) date 2019-09-05 15:19:51*
%MOMM*%
%LPD*%
G04 APERTURE LIST*
%ADD10R,2.170000X2.170000*%
%ADD11C,2.500000*%
%ADD12R,1.600000X1.600000*%
%ADD13C,1.600000*%
%ADD14R,1.800000X1.800000*%
%ADD15C,1.800000*%
%ADD16O,1.500000X1.000000*%
%ADD17R,1.500000X1.000000*%
%ADD18O,1.600000X1.600000*%
%ADD19R,1.900000X1.900000*%
%ADD20C,1.900000*%
%ADD21C,1.524000*%
%ADD22C,0.254000*%
G04 APERTURE END LIST*
D10*
X113665000Y-125730000D03*
D11*
X113665000Y-105730000D03*
D12*
X144145000Y-125095000D03*
D13*
X142145000Y-125095000D03*
D12*
X153035000Y-118110000D03*
D13*
X153035000Y-120610000D03*
D14*
X148844000Y-82296000D03*
D15*
X148844000Y-84836000D03*
X109220000Y-84836000D03*
D14*
X109220000Y-82296000D03*
D16*
X153670000Y-107315000D03*
X153670000Y-106045000D03*
D17*
X153670000Y-108585000D03*
D13*
X132080000Y-105410000D03*
D18*
X132080000Y-113030000D03*
X138430000Y-113030000D03*
D13*
X138430000Y-105410000D03*
X141605000Y-105410000D03*
D18*
X141605000Y-113030000D03*
X144780000Y-113030000D03*
D13*
X144780000Y-105410000D03*
X147955000Y-105410000D03*
D18*
X147955000Y-113030000D03*
D13*
X135255000Y-105410000D03*
D18*
X135255000Y-113030000D03*
X155575000Y-128270000D03*
D13*
X147955000Y-128270000D03*
D19*
X127635000Y-107950000D03*
D20*
X127635000Y-110450000D03*
X127635000Y-112950000D03*
D21*
X132715000Y-128905000D03*
X130175000Y-128905000D03*
X135255000Y-128905000D03*
X137795000Y-128905000D03*
X137795000Y-121285000D03*
X135255000Y-121285000D03*
X132715000Y-121285000D03*
X130175000Y-121285000D03*
D22*
X120885000Y-112950000D02*
X127635000Y-112950000D01*
X113665000Y-105730000D02*
X120885000Y-112950000D01*
X132715000Y-123825000D02*
X135255000Y-121285000D01*
X132715000Y-128905000D02*
X132715000Y-123825000D01*
X135255000Y-121285000D02*
X136103358Y-121285000D01*
X138430000Y-118110000D02*
X138430000Y-113030000D01*
X135255000Y-121285000D02*
X138430000Y-118110000D01*
X141605000Y-105410000D02*
X144780000Y-105410000D01*
X144780000Y-109855000D02*
X147955000Y-113030000D01*
X144780000Y-105410000D02*
X144780000Y-109855000D01*
X153035000Y-118110000D02*
X147955000Y-113030000D01*
X153420000Y-106045000D02*
X153670000Y-106045000D01*
X136054999Y-112230001D02*
X135255000Y-113030000D01*
X139954000Y-108331000D02*
X135255000Y-113030000D01*
X139954000Y-99822000D02*
X139954000Y-108331000D01*
X148844000Y-90932000D02*
X139954000Y-99822000D01*
X148844000Y-84836000D02*
X148844000Y-90932000D01*
X149860000Y-107315000D02*
X147955000Y-105410000D01*
X153670000Y-107315000D02*
X149860000Y-107315000D01*
X132080000Y-106005000D02*
X132080000Y-105410000D01*
X127635000Y-110450000D02*
X132080000Y-106005000D01*
X132080000Y-105410000D02*
X135255000Y-105410000D01*
X130175000Y-112990000D02*
X130175000Y-121285000D01*
X127635000Y-110450000D02*
X130175000Y-112990000D01*
X138430000Y-128270000D02*
X137795000Y-128905000D01*
X147955000Y-128270000D02*
X138430000Y-128270000D01*
X132080000Y-120650000D02*
X132715000Y-121285000D01*
X132080000Y-113030000D02*
X132080000Y-120650000D01*
X132080000Y-111760000D02*
X138430000Y-105410000D01*
X132080000Y-113030000D02*
X132080000Y-111760000D01*
X141605000Y-122555000D02*
X141605000Y-113030000D01*
X135255000Y-128905000D02*
X141605000Y-122555000D01*
G36*
X156197300Y-126975497D02*
G01*
X156126808Y-126937818D01*
X155856309Y-126855764D01*
X155645492Y-126835000D01*
X155504508Y-126835000D01*
X155293691Y-126855764D01*
X155023192Y-126937818D01*
X154773899Y-127071068D01*
X154555392Y-127250392D01*
X154376068Y-127468899D01*
X154242818Y-127718192D01*
X154160764Y-127988691D01*
X154133057Y-128270000D01*
X154160764Y-128551309D01*
X154242818Y-128821808D01*
X154376068Y-129071101D01*
X154555392Y-129289608D01*
X154773899Y-129468932D01*
X155023192Y-129602182D01*
X155293691Y-129684236D01*
X155504508Y-129705000D01*
X155645492Y-129705000D01*
X155856309Y-129684236D01*
X156126808Y-129602182D01*
X156197300Y-129564503D01*
X156197300Y-130162300D01*
X138410145Y-130162300D01*
X138456727Y-130143005D01*
X138685535Y-129990120D01*
X138880120Y-129795535D01*
X139033005Y-129566727D01*
X139138314Y-129312490D01*
X139192000Y-129042592D01*
X139192000Y-129032000D01*
X146738293Y-129032000D01*
X146840363Y-129184759D01*
X147040241Y-129384637D01*
X147275273Y-129541680D01*
X147536426Y-129649853D01*
X147813665Y-129705000D01*
X148096335Y-129705000D01*
X148373574Y-129649853D01*
X148634727Y-129541680D01*
X148869759Y-129384637D01*
X149069637Y-129184759D01*
X149226680Y-128949727D01*
X149334853Y-128688574D01*
X149390000Y-128411335D01*
X149390000Y-128128665D01*
X149334853Y-127851426D01*
X149226680Y-127590273D01*
X149069637Y-127355241D01*
X148869759Y-127155363D01*
X148634727Y-126998320D01*
X148373574Y-126890147D01*
X148096335Y-126835000D01*
X147813665Y-126835000D01*
X147536426Y-126890147D01*
X147275273Y-126998320D01*
X147040241Y-127155363D01*
X146840363Y-127355241D01*
X146738293Y-127508000D01*
X138467423Y-127508000D01*
X138430000Y-127504314D01*
X138392577Y-127508000D01*
X138392574Y-127508000D01*
X138280622Y-127519026D01*
X138164743Y-127554178D01*
X137932592Y-127508000D01*
X137729630Y-127508000D01*
X141054012Y-124183619D01*
X141152296Y-124281903D01*
X140908329Y-124353486D01*
X140787429Y-124608996D01*
X140718700Y-124883184D01*
X140704783Y-125165512D01*
X140746213Y-125445130D01*
X140841397Y-125711292D01*
X140908329Y-125836514D01*
X141152298Y-125908097D01*
X141965395Y-125095000D01*
X141951253Y-125080858D01*
X142130858Y-124901253D01*
X142145000Y-124915395D01*
X142159143Y-124901253D01*
X142338748Y-125080858D01*
X142324605Y-125095000D01*
X142338748Y-125109143D01*
X142159143Y-125288748D01*
X142145000Y-125274605D01*
X141331903Y-126087702D01*
X141403486Y-126331671D01*
X141658996Y-126452571D01*
X141933184Y-126521300D01*
X142215512Y-126535217D01*
X142495130Y-126493787D01*
X142761292Y-126398603D01*
X142883309Y-126333384D01*
X142893815Y-126346185D01*
X142990506Y-126425537D01*
X143100820Y-126484502D01*
X143220518Y-126520812D01*
X143345000Y-126533072D01*
X144945000Y-126533072D01*
X145069482Y-126520812D01*
X145189180Y-126484502D01*
X145299494Y-126425537D01*
X145396185Y-126346185D01*
X145475537Y-126249494D01*
X145534502Y-126139180D01*
X145570812Y-126019482D01*
X145583072Y-125895000D01*
X145583072Y-124295000D01*
X145570812Y-124170518D01*
X145534502Y-124050820D01*
X145475537Y-123940506D01*
X145396185Y-123843815D01*
X145299494Y-123764463D01*
X145189180Y-123705498D01*
X145069482Y-123669188D01*
X144945000Y-123656928D01*
X143345000Y-123656928D01*
X143220518Y-123669188D01*
X143100820Y-123705498D01*
X142990506Y-123764463D01*
X142893815Y-123843815D01*
X142883193Y-123856758D01*
X142631004Y-123737429D01*
X142356816Y-123668700D01*
X142074488Y-123654783D01*
X141794870Y-123696213D01*
X141528708Y-123791397D01*
X141403486Y-123858329D01*
X141331903Y-124102296D01*
X141233619Y-124004012D01*
X142117353Y-123120278D01*
X142146422Y-123096422D01*
X142241645Y-122980392D01*
X142312402Y-122848015D01*
X142355974Y-122704378D01*
X142367000Y-122592426D01*
X142367000Y-122592424D01*
X142370686Y-122555001D01*
X142367000Y-122517578D01*
X142367000Y-121602702D01*
X152221903Y-121602702D01*
X152293486Y-121846671D01*
X152548996Y-121967571D01*
X152823184Y-122036300D01*
X153105512Y-122050217D01*
X153385130Y-122008787D01*
X153651292Y-121913603D01*
X153776514Y-121846671D01*
X153848097Y-121602702D01*
X153035000Y-120789605D01*
X152221903Y-121602702D01*
X142367000Y-121602702D01*
X142367000Y-120680512D01*
X151594783Y-120680512D01*
X151636213Y-120960130D01*
X151731397Y-121226292D01*
X151798329Y-121351514D01*
X152042298Y-121423097D01*
X152855395Y-120610000D01*
X153214605Y-120610000D01*
X154027702Y-121423097D01*
X154271671Y-121351514D01*
X154392571Y-121096004D01*
X154461300Y-120821816D01*
X154475217Y-120539488D01*
X154433787Y-120259870D01*
X154338603Y-119993708D01*
X154271671Y-119868486D01*
X154027702Y-119796903D01*
X153214605Y-120610000D01*
X152855395Y-120610000D01*
X152042298Y-119796903D01*
X151798329Y-119868486D01*
X151677429Y-120123996D01*
X151608700Y-120398184D01*
X151594783Y-120680512D01*
X142367000Y-120680512D01*
X142367000Y-114249832D01*
X142406101Y-114228932D01*
X142624608Y-114049608D01*
X142803932Y-113831101D01*
X142937182Y-113581808D01*
X142998690Y-113379040D01*
X143388091Y-113379040D01*
X143482930Y-113643881D01*
X143627615Y-113885131D01*
X143816586Y-114093519D01*
X144042580Y-114261037D01*
X144296913Y-114381246D01*
X144430961Y-114421904D01*
X144653000Y-114299915D01*
X144653000Y-113157000D01*
X144907000Y-113157000D01*
X144907000Y-114299915D01*
X145129039Y-114421904D01*
X145263087Y-114381246D01*
X145517420Y-114261037D01*
X145743414Y-114093519D01*
X145932385Y-113885131D01*
X146077070Y-113643881D01*
X146171909Y-113379040D01*
X146050624Y-113157000D01*
X144907000Y-113157000D01*
X144653000Y-113157000D01*
X143509376Y-113157000D01*
X143388091Y-113379040D01*
X142998690Y-113379040D01*
X143019236Y-113311309D01*
X143046943Y-113030000D01*
X143019236Y-112748691D01*
X142998691Y-112680960D01*
X143388091Y-112680960D01*
X143509376Y-112903000D01*
X144653000Y-112903000D01*
X144653000Y-111760085D01*
X144907000Y-111760085D01*
X144907000Y-112903000D01*
X146050624Y-112903000D01*
X146171909Y-112680960D01*
X146077070Y-112416119D01*
X145932385Y-112174869D01*
X145743414Y-111966481D01*
X145517420Y-111798963D01*
X145263087Y-111678754D01*
X145129039Y-111638096D01*
X144907000Y-111760085D01*
X144653000Y-111760085D01*
X144430961Y-111638096D01*
X144296913Y-111678754D01*
X144042580Y-111798963D01*
X143816586Y-111966481D01*
X143627615Y-112174869D01*
X143482930Y-112416119D01*
X143388091Y-112680960D01*
X142998691Y-112680960D01*
X142937182Y-112478192D01*
X142803932Y-112228899D01*
X142624608Y-112010392D01*
X142406101Y-111831068D01*
X142156808Y-111697818D01*
X141886309Y-111615764D01*
X141675492Y-111595000D01*
X141534508Y-111595000D01*
X141323691Y-111615764D01*
X141053192Y-111697818D01*
X140803899Y-111831068D01*
X140585392Y-112010392D01*
X140406068Y-112228899D01*
X140272818Y-112478192D01*
X140190764Y-112748691D01*
X140163057Y-113030000D01*
X140190764Y-113311309D01*
X140272818Y-113581808D01*
X140406068Y-113831101D01*
X140585392Y-114049608D01*
X140803899Y-114228932D01*
X140843001Y-114249832D01*
X140843000Y-122239369D01*
X135544211Y-127538159D01*
X135392592Y-127508000D01*
X135117408Y-127508000D01*
X134847510Y-127561686D01*
X134593273Y-127666995D01*
X134364465Y-127819880D01*
X134169880Y-128014465D01*
X134016995Y-128243273D01*
X133985000Y-128320515D01*
X133953005Y-128243273D01*
X133800120Y-128014465D01*
X133605535Y-127819880D01*
X133477000Y-127733995D01*
X133477000Y-124140630D01*
X134965789Y-122651841D01*
X135117408Y-122682000D01*
X135392592Y-122682000D01*
X135662490Y-122628314D01*
X135916727Y-122523005D01*
X136145535Y-122370120D01*
X136340120Y-122175535D01*
X136493005Y-121946727D01*
X136496184Y-121939052D01*
X136528750Y-121921645D01*
X136542076Y-121910709D01*
X136556995Y-121946727D01*
X136709880Y-122175535D01*
X136904465Y-122370120D01*
X137133273Y-122523005D01*
X137387510Y-122628314D01*
X137657408Y-122682000D01*
X137932592Y-122682000D01*
X138202490Y-122628314D01*
X138456727Y-122523005D01*
X138685535Y-122370120D01*
X138880120Y-122175535D01*
X139033005Y-121946727D01*
X139138314Y-121692490D01*
X139192000Y-121422592D01*
X139192000Y-121147408D01*
X139138314Y-120877510D01*
X139033005Y-120623273D01*
X138880120Y-120394465D01*
X138685535Y-120199880D01*
X138456727Y-120046995D01*
X138202490Y-119941686D01*
X137932592Y-119888000D01*
X137729631Y-119888000D01*
X138942353Y-118675278D01*
X138971422Y-118651422D01*
X139066645Y-118535392D01*
X139137402Y-118403015D01*
X139180974Y-118259378D01*
X139192000Y-118147426D01*
X139192000Y-118147424D01*
X139195686Y-118110001D01*
X139192000Y-118072578D01*
X139192000Y-114249832D01*
X139231101Y-114228932D01*
X139449608Y-114049608D01*
X139628932Y-113831101D01*
X139762182Y-113581808D01*
X139844236Y-113311309D01*
X139871943Y-113030000D01*
X139844236Y-112748691D01*
X139762182Y-112478192D01*
X139628932Y-112228899D01*
X139449608Y-112010392D01*
X139231101Y-111831068D01*
X138981808Y-111697818D01*
X138711309Y-111615764D01*
X138500492Y-111595000D01*
X138359508Y-111595000D01*
X138148691Y-111615764D01*
X137878192Y-111697818D01*
X137628899Y-111831068D01*
X137410392Y-112010392D01*
X137231068Y-112228899D01*
X137097818Y-112478192D01*
X137015764Y-112748691D01*
X136988057Y-113030000D01*
X137015764Y-113311309D01*
X137097818Y-113581808D01*
X137231068Y-113831101D01*
X137410392Y-114049608D01*
X137628899Y-114228932D01*
X137668001Y-114249832D01*
X137668000Y-117794369D01*
X135544211Y-119918159D01*
X135392592Y-119888000D01*
X135117408Y-119888000D01*
X134847510Y-119941686D01*
X134593273Y-120046995D01*
X134364465Y-120199880D01*
X134169880Y-120394465D01*
X134016995Y-120623273D01*
X133985000Y-120700515D01*
X133953005Y-120623273D01*
X133800120Y-120394465D01*
X133605535Y-120199880D01*
X133376727Y-120046995D01*
X133122490Y-119941686D01*
X132852592Y-119888000D01*
X132842000Y-119888000D01*
X132842000Y-114249832D01*
X132881101Y-114228932D01*
X133099608Y-114049608D01*
X133278932Y-113831101D01*
X133412182Y-113581808D01*
X133494236Y-113311309D01*
X133521943Y-113030000D01*
X133494236Y-112748691D01*
X133412182Y-112478192D01*
X133278932Y-112228899D01*
X133099608Y-112010392D01*
X132993950Y-111923680D01*
X138108474Y-106809157D01*
X138288665Y-106845000D01*
X138571335Y-106845000D01*
X138848574Y-106789853D01*
X139109727Y-106681680D01*
X139192001Y-106626707D01*
X139192001Y-108015369D01*
X135578736Y-111628634D01*
X135536309Y-111615764D01*
X135325492Y-111595000D01*
X135184508Y-111595000D01*
X134973691Y-111615764D01*
X134703192Y-111697818D01*
X134453899Y-111831068D01*
X134235392Y-112010392D01*
X134056068Y-112228899D01*
X133922818Y-112478192D01*
X133840764Y-112748691D01*
X133813057Y-113030000D01*
X133840764Y-113311309D01*
X133922818Y-113581808D01*
X134056068Y-113831101D01*
X134235392Y-114049608D01*
X134453899Y-114228932D01*
X134703192Y-114362182D01*
X134973691Y-114444236D01*
X135184508Y-114465000D01*
X135325492Y-114465000D01*
X135536309Y-114444236D01*
X135806808Y-114362182D01*
X136056101Y-114228932D01*
X136274608Y-114049608D01*
X136453932Y-113831101D01*
X136587182Y-113581808D01*
X136669236Y-113311309D01*
X136696943Y-113030000D01*
X136669236Y-112748691D01*
X136656366Y-112706264D01*
X140466346Y-108896284D01*
X140495422Y-108872422D01*
X140555857Y-108798781D01*
X140590645Y-108756393D01*
X140661401Y-108624016D01*
X140661402Y-108624015D01*
X140704974Y-108480378D01*
X140716000Y-108368426D01*
X140716000Y-108368423D01*
X140719686Y-108331000D01*
X140716000Y-108293577D01*
X140716000Y-106541849D01*
X140925273Y-106681680D01*
X141186426Y-106789853D01*
X141463665Y-106845000D01*
X141746335Y-106845000D01*
X142023574Y-106789853D01*
X142284727Y-106681680D01*
X142519759Y-106524637D01*
X142719637Y-106324759D01*
X142821707Y-106172000D01*
X143563293Y-106172000D01*
X143665363Y-106324759D01*
X143865241Y-106524637D01*
X144018000Y-106626707D01*
X144018001Y-109817567D01*
X144014314Y-109855000D01*
X144029027Y-110004378D01*
X144072599Y-110148015D01*
X144143355Y-110280392D01*
X144214721Y-110367351D01*
X144238579Y-110396422D01*
X144267649Y-110420279D01*
X146553634Y-112706265D01*
X146540764Y-112748691D01*
X146513057Y-113030000D01*
X146540764Y-113311309D01*
X146622818Y-113581808D01*
X146756068Y-113831101D01*
X146935392Y-114049608D01*
X147153899Y-114228932D01*
X147403192Y-114362182D01*
X147673691Y-114444236D01*
X147884508Y-114465000D01*
X148025492Y-114465000D01*
X148236309Y-114444236D01*
X148278736Y-114431366D01*
X151596928Y-117749559D01*
X151596928Y-118910000D01*
X151609188Y-119034482D01*
X151645498Y-119154180D01*
X151704463Y-119264494D01*
X151783815Y-119361185D01*
X151880506Y-119440537D01*
X151990820Y-119499502D01*
X152110518Y-119535812D01*
X152235000Y-119548072D01*
X152242215Y-119548072D01*
X152221903Y-119617298D01*
X153035000Y-120430395D01*
X153848097Y-119617298D01*
X153827785Y-119548072D01*
X153835000Y-119548072D01*
X153959482Y-119535812D01*
X154079180Y-119499502D01*
X154189494Y-119440537D01*
X154286185Y-119361185D01*
X154365537Y-119264494D01*
X154424502Y-119154180D01*
X154460812Y-119034482D01*
X154473072Y-118910000D01*
X154473072Y-117310000D01*
X154460812Y-117185518D01*
X154424502Y-117065820D01*
X154365537Y-116955506D01*
X154286185Y-116858815D01*
X154189494Y-116779463D01*
X154079180Y-116720498D01*
X153959482Y-116684188D01*
X153835000Y-116671928D01*
X152674559Y-116671928D01*
X149356366Y-113353736D01*
X149369236Y-113311309D01*
X149396943Y-113030000D01*
X149369236Y-112748691D01*
X149287182Y-112478192D01*
X149153932Y-112228899D01*
X148974608Y-112010392D01*
X148756101Y-111831068D01*
X148506808Y-111697818D01*
X148236309Y-111615764D01*
X148025492Y-111595000D01*
X147884508Y-111595000D01*
X147673691Y-111615764D01*
X147631265Y-111628634D01*
X145542000Y-109539370D01*
X145542000Y-109085000D01*
X152281928Y-109085000D01*
X152294188Y-109209482D01*
X152330498Y-109329180D01*
X152389463Y-109439494D01*
X152468815Y-109536185D01*
X152565506Y-109615537D01*
X152675820Y-109674502D01*
X152795518Y-109710812D01*
X152920000Y-109723072D01*
X153384250Y-109720000D01*
X153543000Y-109561250D01*
X153543000Y-108712000D01*
X153797000Y-108712000D01*
X153797000Y-109561250D01*
X153955750Y-109720000D01*
X154420000Y-109723072D01*
X154544482Y-109710812D01*
X154664180Y-109674502D01*
X154774494Y-109615537D01*
X154871185Y-109536185D01*
X154950537Y-109439494D01*
X155009502Y-109329180D01*
X155045812Y-109209482D01*
X155058072Y-109085000D01*
X155055000Y-108870750D01*
X154896250Y-108712000D01*
X153797000Y-108712000D01*
X153543000Y-108712000D01*
X152443750Y-108712000D01*
X152285000Y-108870750D01*
X152281928Y-109085000D01*
X145542000Y-109085000D01*
X145542000Y-106626707D01*
X145694759Y-106524637D01*
X145894637Y-106324759D01*
X146051680Y-106089727D01*
X146159853Y-105828574D01*
X146215000Y-105551335D01*
X146215000Y-105268665D01*
X146520000Y-105268665D01*
X146520000Y-105551335D01*
X146575147Y-105828574D01*
X146683320Y-106089727D01*
X146840363Y-106324759D01*
X147040241Y-106524637D01*
X147275273Y-106681680D01*
X147536426Y-106789853D01*
X147813665Y-106845000D01*
X148096335Y-106845000D01*
X148276527Y-106809157D01*
X149294721Y-107827352D01*
X149318578Y-107856422D01*
X149347648Y-107880279D01*
X149434607Y-107951645D01*
X149505364Y-107989465D01*
X149566985Y-108022402D01*
X149710622Y-108065974D01*
X149822574Y-108077000D01*
X149822577Y-108077000D01*
X149860000Y-108080686D01*
X149897423Y-108077000D01*
X152282716Y-108077000D01*
X152281928Y-108085000D01*
X152285000Y-108299250D01*
X152443750Y-108458000D01*
X153543000Y-108458000D01*
X153543000Y-108450000D01*
X153797000Y-108450000D01*
X153797000Y-108458000D01*
X154896250Y-108458000D01*
X155055000Y-108299250D01*
X155058072Y-108085000D01*
X155045812Y-107960518D01*
X155009502Y-107840820D01*
X154967703Y-107762621D01*
X154973676Y-107751447D01*
X155038577Y-107537499D01*
X155060491Y-107315000D01*
X155038577Y-107092501D01*
X154973676Y-106878553D01*
X154868284Y-106681377D01*
X154867154Y-106680000D01*
X154868284Y-106678623D01*
X154973676Y-106481447D01*
X155038577Y-106267499D01*
X155060491Y-106045000D01*
X155038577Y-105822501D01*
X154973676Y-105608553D01*
X154868284Y-105411377D01*
X154726449Y-105238551D01*
X154553623Y-105096716D01*
X154356447Y-104991324D01*
X154142499Y-104926423D01*
X153975752Y-104910000D01*
X153364248Y-104910000D01*
X153197501Y-104926423D01*
X152983553Y-104991324D01*
X152786377Y-105096716D01*
X152613551Y-105238551D01*
X152471716Y-105411377D01*
X152366324Y-105608553D01*
X152301423Y-105822501D01*
X152279509Y-106045000D01*
X152301423Y-106267499D01*
X152366324Y-106481447D01*
X152404570Y-106553000D01*
X150175631Y-106553000D01*
X149354157Y-105731527D01*
X149390000Y-105551335D01*
X149390000Y-105268665D01*
X149334853Y-104991426D01*
X149226680Y-104730273D01*
X149069637Y-104495241D01*
X148869759Y-104295363D01*
X148634727Y-104138320D01*
X148373574Y-104030147D01*
X148096335Y-103975000D01*
X147813665Y-103975000D01*
X147536426Y-104030147D01*
X147275273Y-104138320D01*
X147040241Y-104295363D01*
X146840363Y-104495241D01*
X146683320Y-104730273D01*
X146575147Y-104991426D01*
X146520000Y-105268665D01*
X146215000Y-105268665D01*
X146159853Y-104991426D01*
X146051680Y-104730273D01*
X145894637Y-104495241D01*
X145694759Y-104295363D01*
X145459727Y-104138320D01*
X145198574Y-104030147D01*
X144921335Y-103975000D01*
X144638665Y-103975000D01*
X144361426Y-104030147D01*
X144100273Y-104138320D01*
X143865241Y-104295363D01*
X143665363Y-104495241D01*
X143563293Y-104648000D01*
X142821707Y-104648000D01*
X142719637Y-104495241D01*
X142519759Y-104295363D01*
X142284727Y-104138320D01*
X142023574Y-104030147D01*
X141746335Y-103975000D01*
X141463665Y-103975000D01*
X141186426Y-104030147D01*
X140925273Y-104138320D01*
X140716000Y-104278151D01*
X140716000Y-100137630D01*
X149356346Y-91497284D01*
X149385422Y-91473422D01*
X149445857Y-91399781D01*
X149480645Y-91357393D01*
X149551401Y-91225016D01*
X149551402Y-91225015D01*
X149594974Y-91081378D01*
X149606000Y-90969426D01*
X149606000Y-90969423D01*
X149609686Y-90932000D01*
X149606000Y-90894577D01*
X149606000Y-86172976D01*
X149822505Y-86028312D01*
X150036312Y-85814505D01*
X150204299Y-85563095D01*
X150320011Y-85283743D01*
X150379000Y-84987184D01*
X150379000Y-84684816D01*
X150320011Y-84388257D01*
X150204299Y-84108905D01*
X150036312Y-83857495D01*
X149969873Y-83791056D01*
X149988180Y-83785502D01*
X150098494Y-83726537D01*
X150195185Y-83647185D01*
X150274537Y-83550494D01*
X150333502Y-83440180D01*
X150369812Y-83320482D01*
X150382072Y-83196000D01*
X150382072Y-81396000D01*
X150369812Y-81271518D01*
X150333502Y-81151820D01*
X150274537Y-81041506D01*
X150195185Y-80944815D01*
X150098494Y-80865463D01*
X149988180Y-80806498D01*
X149868482Y-80770188D01*
X149744000Y-80757928D01*
X147944000Y-80757928D01*
X147819518Y-80770188D01*
X147699820Y-80806498D01*
X147589506Y-80865463D01*
X147492815Y-80944815D01*
X147413463Y-81041506D01*
X147354498Y-81151820D01*
X147318188Y-81271518D01*
X147305928Y-81396000D01*
X147305928Y-83196000D01*
X147318188Y-83320482D01*
X147354498Y-83440180D01*
X147413463Y-83550494D01*
X147492815Y-83647185D01*
X147589506Y-83726537D01*
X147699820Y-83785502D01*
X147718127Y-83791056D01*
X147651688Y-83857495D01*
X147483701Y-84108905D01*
X147367989Y-84388257D01*
X147309000Y-84684816D01*
X147309000Y-84987184D01*
X147367989Y-85283743D01*
X147483701Y-85563095D01*
X147651688Y-85814505D01*
X147865495Y-86028312D01*
X148082000Y-86172976D01*
X148082001Y-90616369D01*
X139441654Y-99256716D01*
X139412578Y-99280578D01*
X139356983Y-99348322D01*
X139317355Y-99396608D01*
X139279535Y-99467365D01*
X139246598Y-99528986D01*
X139203026Y-99672623D01*
X139192000Y-99784574D01*
X139188314Y-99822000D01*
X139192000Y-99859423D01*
X139192001Y-104193293D01*
X139109727Y-104138320D01*
X138848574Y-104030147D01*
X138571335Y-103975000D01*
X138288665Y-103975000D01*
X138011426Y-104030147D01*
X137750273Y-104138320D01*
X137515241Y-104295363D01*
X137315363Y-104495241D01*
X137158320Y-104730273D01*
X137050147Y-104991426D01*
X136995000Y-105268665D01*
X136995000Y-105551335D01*
X137030843Y-105731526D01*
X131567649Y-111194721D01*
X131538579Y-111218578D01*
X131514722Y-111247648D01*
X131514721Y-111247649D01*
X131443355Y-111334608D01*
X131372599Y-111466985D01*
X131329027Y-111610622D01*
X131314314Y-111760000D01*
X131318001Y-111797433D01*
X131318001Y-111810168D01*
X131278899Y-111831068D01*
X131060392Y-112010392D01*
X130881068Y-112228899D01*
X130747818Y-112478192D01*
X130745904Y-112484502D01*
X130716422Y-112448578D01*
X130687353Y-112424722D01*
X129161722Y-110899091D01*
X129220000Y-110606109D01*
X129220000Y-110293891D01*
X129161722Y-110000909D01*
X132341542Y-106821089D01*
X132498574Y-106789853D01*
X132759727Y-106681680D01*
X132994759Y-106524637D01*
X133194637Y-106324759D01*
X133296707Y-106172000D01*
X134038293Y-106172000D01*
X134140363Y-106324759D01*
X134340241Y-106524637D01*
X134575273Y-106681680D01*
X134836426Y-106789853D01*
X135113665Y-106845000D01*
X135396335Y-106845000D01*
X135673574Y-106789853D01*
X135934727Y-106681680D01*
X136169759Y-106524637D01*
X136369637Y-106324759D01*
X136526680Y-106089727D01*
X136634853Y-105828574D01*
X136690000Y-105551335D01*
X136690000Y-105268665D01*
X136634853Y-104991426D01*
X136526680Y-104730273D01*
X136369637Y-104495241D01*
X136169759Y-104295363D01*
X135934727Y-104138320D01*
X135673574Y-104030147D01*
X135396335Y-103975000D01*
X135113665Y-103975000D01*
X134836426Y-104030147D01*
X134575273Y-104138320D01*
X134340241Y-104295363D01*
X134140363Y-104495241D01*
X134038293Y-104648000D01*
X133296707Y-104648000D01*
X133194637Y-104495241D01*
X132994759Y-104295363D01*
X132759727Y-104138320D01*
X132498574Y-104030147D01*
X132221335Y-103975000D01*
X131938665Y-103975000D01*
X131661426Y-104030147D01*
X131400273Y-104138320D01*
X131165241Y-104295363D01*
X130965363Y-104495241D01*
X130808320Y-104730273D01*
X130700147Y-104991426D01*
X130645000Y-105268665D01*
X130645000Y-105551335D01*
X130700147Y-105828574D01*
X130808320Y-106089727D01*
X130852108Y-106155261D01*
X129223072Y-107784298D01*
X129223072Y-107000000D01*
X129210812Y-106875518D01*
X129174502Y-106755820D01*
X129115537Y-106645506D01*
X129036185Y-106548815D01*
X128939494Y-106469463D01*
X128829180Y-106410498D01*
X128709482Y-106374188D01*
X128585000Y-106361928D01*
X126685000Y-106361928D01*
X126560518Y-106374188D01*
X126440820Y-106410498D01*
X126330506Y-106469463D01*
X126233815Y-106548815D01*
X126154463Y-106645506D01*
X126095498Y-106755820D01*
X126059188Y-106875518D01*
X126046928Y-107000000D01*
X126046928Y-108900000D01*
X126059188Y-109024482D01*
X126095498Y-109144180D01*
X126154463Y-109254494D01*
X126233815Y-109351185D01*
X126330506Y-109430537D01*
X126389021Y-109461814D01*
X126230391Y-109699221D01*
X126110911Y-109987673D01*
X126050000Y-110293891D01*
X126050000Y-110606109D01*
X126110911Y-110912327D01*
X126230391Y-111200779D01*
X126403850Y-111460379D01*
X126624621Y-111681150D01*
X126652832Y-111700000D01*
X126624621Y-111718850D01*
X126403850Y-111939621D01*
X126237889Y-112188000D01*
X121200631Y-112188000D01*
X115423347Y-106410717D01*
X115477561Y-106279834D01*
X115550000Y-105915656D01*
X115550000Y-105544344D01*
X115477561Y-105180166D01*
X115335466Y-104837118D01*
X115129175Y-104528382D01*
X114866618Y-104265825D01*
X114557882Y-104059534D01*
X114214834Y-103917439D01*
X113850656Y-103845000D01*
X113479344Y-103845000D01*
X113115166Y-103917439D01*
X112772118Y-104059534D01*
X112463382Y-104265825D01*
X112200825Y-104528382D01*
X111994534Y-104837118D01*
X111852439Y-105180166D01*
X111780000Y-105544344D01*
X111780000Y-105915656D01*
X111852439Y-106279834D01*
X111994534Y-106622882D01*
X112200825Y-106931618D01*
X112463382Y-107194175D01*
X112772118Y-107400466D01*
X113115166Y-107542561D01*
X113479344Y-107615000D01*
X113850656Y-107615000D01*
X114214834Y-107542561D01*
X114345717Y-107488347D01*
X120319721Y-113462352D01*
X120343578Y-113491422D01*
X120372648Y-113515279D01*
X120459607Y-113586645D01*
X120530364Y-113624465D01*
X120591985Y-113657402D01*
X120735622Y-113700974D01*
X120847574Y-113712000D01*
X120847577Y-113712000D01*
X120885000Y-113715686D01*
X120922423Y-113712000D01*
X126237889Y-113712000D01*
X126403850Y-113960379D01*
X126624621Y-114181150D01*
X126884221Y-114354609D01*
X127172673Y-114474089D01*
X127478891Y-114535000D01*
X127791109Y-114535000D01*
X128097327Y-114474089D01*
X128385779Y-114354609D01*
X128645379Y-114181150D01*
X128866150Y-113960379D01*
X129039609Y-113700779D01*
X129159089Y-113412327D01*
X129218918Y-113111549D01*
X129413000Y-113305631D01*
X129413001Y-120113995D01*
X129284465Y-120199880D01*
X129089880Y-120394465D01*
X128936995Y-120623273D01*
X128831686Y-120877510D01*
X128778000Y-121147408D01*
X128778000Y-121422592D01*
X128831686Y-121692490D01*
X128936995Y-121946727D01*
X129089880Y-122175535D01*
X129284465Y-122370120D01*
X129513273Y-122523005D01*
X129767510Y-122628314D01*
X130037408Y-122682000D01*
X130312592Y-122682000D01*
X130582490Y-122628314D01*
X130836727Y-122523005D01*
X131065535Y-122370120D01*
X131260120Y-122175535D01*
X131413005Y-121946727D01*
X131445000Y-121869485D01*
X131476995Y-121946727D01*
X131629880Y-122175535D01*
X131824465Y-122370120D01*
X132053273Y-122523005D01*
X132307510Y-122628314D01*
X132577408Y-122682000D01*
X132780370Y-122682000D01*
X132202649Y-123259721D01*
X132173579Y-123283578D01*
X132149722Y-123312648D01*
X132149721Y-123312649D01*
X132078355Y-123399608D01*
X132007599Y-123531985D01*
X131964027Y-123675622D01*
X131949314Y-123825000D01*
X131953001Y-123862433D01*
X131953000Y-127733995D01*
X131824465Y-127819880D01*
X131629880Y-128014465D01*
X131476995Y-128243273D01*
X131447308Y-128314943D01*
X131442636Y-128301977D01*
X131380656Y-128186020D01*
X131140565Y-128119040D01*
X130354605Y-128905000D01*
X131140565Y-129690960D01*
X131380656Y-129623980D01*
X131444485Y-129488240D01*
X131476995Y-129566727D01*
X131629880Y-129795535D01*
X131824465Y-129990120D01*
X132053273Y-130143005D01*
X132099855Y-130162300D01*
X130797360Y-130162300D01*
X130893980Y-130110656D01*
X130960960Y-129870565D01*
X130175000Y-129084605D01*
X129389040Y-129870565D01*
X129456020Y-130110656D01*
X129565848Y-130162300D01*
X102247700Y-130162300D01*
X102247700Y-128977017D01*
X128773090Y-128977017D01*
X128814078Y-129249133D01*
X128907364Y-129508023D01*
X128969344Y-129623980D01*
X129209435Y-129690960D01*
X129995395Y-128905000D01*
X129209435Y-128119040D01*
X128969344Y-128186020D01*
X128852244Y-128435048D01*
X128785977Y-128702135D01*
X128773090Y-128977017D01*
X102247700Y-128977017D01*
X102247700Y-127939435D01*
X129389040Y-127939435D01*
X130175000Y-128725395D01*
X130960960Y-127939435D01*
X130893980Y-127699344D01*
X130644952Y-127582244D01*
X130377865Y-127515977D01*
X130102983Y-127503090D01*
X129830867Y-127544078D01*
X129571977Y-127637364D01*
X129456020Y-127699344D01*
X129389040Y-127939435D01*
X102247700Y-127939435D01*
X102247700Y-126815000D01*
X111941928Y-126815000D01*
X111954188Y-126939482D01*
X111990498Y-127059180D01*
X112049463Y-127169494D01*
X112128815Y-127266185D01*
X112225506Y-127345537D01*
X112335820Y-127404502D01*
X112455518Y-127440812D01*
X112580000Y-127453072D01*
X113379250Y-127450000D01*
X113538000Y-127291250D01*
X113538000Y-125857000D01*
X113792000Y-125857000D01*
X113792000Y-127291250D01*
X113950750Y-127450000D01*
X114750000Y-127453072D01*
X114874482Y-127440812D01*
X114994180Y-127404502D01*
X115104494Y-127345537D01*
X115201185Y-127266185D01*
X115280537Y-127169494D01*
X115339502Y-127059180D01*
X115375812Y-126939482D01*
X115388072Y-126815000D01*
X115385000Y-126015750D01*
X115226250Y-125857000D01*
X113792000Y-125857000D01*
X113538000Y-125857000D01*
X112103750Y-125857000D01*
X111945000Y-126015750D01*
X111941928Y-126815000D01*
X102247700Y-126815000D01*
X102247700Y-124645000D01*
X111941928Y-124645000D01*
X111945000Y-125444250D01*
X112103750Y-125603000D01*
X113538000Y-125603000D01*
X113538000Y-124168750D01*
X113792000Y-124168750D01*
X113792000Y-125603000D01*
X115226250Y-125603000D01*
X115385000Y-125444250D01*
X115388072Y-124645000D01*
X115375812Y-124520518D01*
X115339502Y-124400820D01*
X115280537Y-124290506D01*
X115201185Y-124193815D01*
X115104494Y-124114463D01*
X114994180Y-124055498D01*
X114874482Y-124019188D01*
X114750000Y-124006928D01*
X113950750Y-124010000D01*
X113792000Y-124168750D01*
X113538000Y-124168750D01*
X113379250Y-124010000D01*
X112580000Y-124006928D01*
X112455518Y-124019188D01*
X112335820Y-124055498D01*
X112225506Y-124114463D01*
X112128815Y-124193815D01*
X112049463Y-124290506D01*
X111990498Y-124400820D01*
X111954188Y-124520518D01*
X111941928Y-124645000D01*
X102247700Y-124645000D01*
X102247700Y-81396000D01*
X107681928Y-81396000D01*
X107681928Y-83196000D01*
X107694188Y-83320482D01*
X107730498Y-83440180D01*
X107789463Y-83550494D01*
X107868815Y-83647185D01*
X107965506Y-83726537D01*
X108075820Y-83785502D01*
X108094127Y-83791056D01*
X108027688Y-83857495D01*
X107859701Y-84108905D01*
X107743989Y-84388257D01*
X107685000Y-84684816D01*
X107685000Y-84987184D01*
X107743989Y-85283743D01*
X107859701Y-85563095D01*
X108027688Y-85814505D01*
X108241495Y-86028312D01*
X108492905Y-86196299D01*
X108772257Y-86312011D01*
X109068816Y-86371000D01*
X109371184Y-86371000D01*
X109667743Y-86312011D01*
X109947095Y-86196299D01*
X110198505Y-86028312D01*
X110412312Y-85814505D01*
X110580299Y-85563095D01*
X110696011Y-85283743D01*
X110755000Y-84987184D01*
X110755000Y-84684816D01*
X110696011Y-84388257D01*
X110580299Y-84108905D01*
X110412312Y-83857495D01*
X110345873Y-83791056D01*
X110364180Y-83785502D01*
X110474494Y-83726537D01*
X110571185Y-83647185D01*
X110650537Y-83550494D01*
X110709502Y-83440180D01*
X110745812Y-83320482D01*
X110758072Y-83196000D01*
X110758072Y-81396000D01*
X110745812Y-81271518D01*
X110709502Y-81151820D01*
X110650537Y-81041506D01*
X110571185Y-80944815D01*
X110474494Y-80865463D01*
X110364180Y-80806498D01*
X110244482Y-80770188D01*
X110120000Y-80757928D01*
X108320000Y-80757928D01*
X108195518Y-80770188D01*
X108075820Y-80806498D01*
X107965506Y-80865463D01*
X107868815Y-80944815D01*
X107789463Y-81041506D01*
X107730498Y-81151820D01*
X107694188Y-81271518D01*
X107681928Y-81396000D01*
X102247700Y-81396000D01*
X102247700Y-50754595D01*
X121465512Y-50754595D01*
X121465922Y-50813299D01*
X121465512Y-50872003D01*
X121466394Y-50881003D01*
X121505257Y-51250757D01*
X121517063Y-51308274D01*
X121528061Y-51365926D01*
X121530675Y-51374584D01*
X121640617Y-51729747D01*
X121663374Y-51783883D01*
X121685357Y-51838293D01*
X121689602Y-51846278D01*
X121866434Y-52173323D01*
X121899266Y-52221999D01*
X121931406Y-52271114D01*
X121937122Y-52278122D01*
X122174111Y-52564592D01*
X122215767Y-52605958D01*
X122256838Y-52647899D01*
X122263806Y-52653663D01*
X122551923Y-52888646D01*
X122600836Y-52921144D01*
X122649258Y-52954299D01*
X122657208Y-52958597D01*
X122657212Y-52958600D01*
X122657216Y-52958602D01*
X122985485Y-53133145D01*
X123039761Y-53155516D01*
X123093715Y-53178642D01*
X123102352Y-53181315D01*
X123102356Y-53181317D01*
X123102360Y-53181318D01*
X123458277Y-53288775D01*
X123515838Y-53300173D01*
X123573287Y-53312384D01*
X123582278Y-53313329D01*
X123582280Y-53313329D01*
X123952296Y-53349609D01*
X123952309Y-53349609D01*
X123983691Y-53352700D01*
X134207309Y-53352700D01*
X134240580Y-53349423D01*
X134265303Y-53349423D01*
X134274296Y-53348478D01*
X134643770Y-53307035D01*
X134701210Y-53294826D01*
X134758778Y-53283427D01*
X134767417Y-53280753D01*
X135121804Y-53168335D01*
X135175793Y-53145195D01*
X135230036Y-53122838D01*
X135237991Y-53118537D01*
X135563794Y-52939425D01*
X135612240Y-52906253D01*
X135661127Y-52873773D01*
X135668090Y-52868012D01*
X135668096Y-52868008D01*
X135668101Y-52868003D01*
X135952903Y-52629026D01*
X135993970Y-52587090D01*
X136035632Y-52545719D01*
X136041347Y-52538711D01*
X136274313Y-52248960D01*
X136306462Y-52199832D01*
X136339285Y-52151170D01*
X136343530Y-52143185D01*
X136515779Y-51813703D01*
X136537782Y-51759243D01*
X136560519Y-51705156D01*
X136563133Y-51696498D01*
X136668105Y-51339833D01*
X136679111Y-51282137D01*
X136690909Y-51224665D01*
X136691790Y-51215672D01*
X136691792Y-51215663D01*
X136691792Y-51215655D01*
X136725488Y-50845405D01*
X136725078Y-50786701D01*
X136725488Y-50727998D01*
X136724606Y-50718998D01*
X136685743Y-50349243D01*
X136673930Y-50291696D01*
X136662938Y-50234073D01*
X136660325Y-50225416D01*
X136550383Y-49870252D01*
X136527614Y-49816088D01*
X136505643Y-49761706D01*
X136501398Y-49753722D01*
X136324566Y-49426677D01*
X136291734Y-49378001D01*
X136259594Y-49328886D01*
X136253878Y-49321878D01*
X136016889Y-49035408D01*
X135975233Y-48994042D01*
X135934162Y-48952101D01*
X135927194Y-48946337D01*
X135639077Y-48711354D01*
X135590164Y-48678856D01*
X135541742Y-48645701D01*
X135533792Y-48641403D01*
X135533788Y-48641400D01*
X135533784Y-48641398D01*
X135205515Y-48466855D01*
X135151253Y-48444490D01*
X135097284Y-48421358D01*
X135088645Y-48418684D01*
X134732723Y-48311224D01*
X134675126Y-48299819D01*
X134617713Y-48287616D01*
X134608723Y-48286671D01*
X134608719Y-48286671D01*
X134238704Y-48250391D01*
X134238691Y-48250391D01*
X134207309Y-48247300D01*
X123983691Y-48247300D01*
X123950420Y-48250577D01*
X123925697Y-48250577D01*
X123916704Y-48251522D01*
X123547230Y-48292965D01*
X123489765Y-48305180D01*
X123432222Y-48316573D01*
X123423583Y-48319247D01*
X123069196Y-48431665D01*
X123015220Y-48454799D01*
X122960963Y-48477162D01*
X122953009Y-48481463D01*
X122627206Y-48660575D01*
X122578777Y-48693735D01*
X122529872Y-48726227D01*
X122522910Y-48731988D01*
X122522904Y-48731992D01*
X122522899Y-48731997D01*
X122238097Y-48970974D01*
X122197011Y-49012929D01*
X122155368Y-49054282D01*
X122149658Y-49061284D01*
X122149653Y-49061289D01*
X122149649Y-49061294D01*
X121916687Y-49351040D01*
X121884542Y-49400163D01*
X121851715Y-49448831D01*
X121847473Y-49456811D01*
X121847470Y-49456815D01*
X121847470Y-49456816D01*
X121675221Y-49786297D01*
X121653222Y-49840745D01*
X121630481Y-49894844D01*
X121627867Y-49903501D01*
X121522895Y-50260167D01*
X121511889Y-50317863D01*
X121500091Y-50375335D01*
X121499210Y-50384328D01*
X121499208Y-50384337D01*
X121499208Y-50384345D01*
X121465512Y-50754595D01*
X102247700Y-50754595D01*
X102247700Y-47002700D01*
X156197301Y-47002700D01*
X156197300Y-126975497D01*
X156197300Y-126975497D01*
G37*
X156197300Y-126975497D02*
X156126808Y-126937818D01*
X155856309Y-126855764D01*
X155645492Y-126835000D01*
X155504508Y-126835000D01*
X155293691Y-126855764D01*
X155023192Y-126937818D01*
X154773899Y-127071068D01*
X154555392Y-127250392D01*
X154376068Y-127468899D01*
X154242818Y-127718192D01*
X154160764Y-127988691D01*
X154133057Y-128270000D01*
X154160764Y-128551309D01*
X154242818Y-128821808D01*
X154376068Y-129071101D01*
X154555392Y-129289608D01*
X154773899Y-129468932D01*
X155023192Y-129602182D01*
X155293691Y-129684236D01*
X155504508Y-129705000D01*
X155645492Y-129705000D01*
X155856309Y-129684236D01*
X156126808Y-129602182D01*
X156197300Y-129564503D01*
X156197300Y-130162300D01*
X138410145Y-130162300D01*
X138456727Y-130143005D01*
X138685535Y-129990120D01*
X138880120Y-129795535D01*
X139033005Y-129566727D01*
X139138314Y-129312490D01*
X139192000Y-129042592D01*
X139192000Y-129032000D01*
X146738293Y-129032000D01*
X146840363Y-129184759D01*
X147040241Y-129384637D01*
X147275273Y-129541680D01*
X147536426Y-129649853D01*
X147813665Y-129705000D01*
X148096335Y-129705000D01*
X148373574Y-129649853D01*
X148634727Y-129541680D01*
X148869759Y-129384637D01*
X149069637Y-129184759D01*
X149226680Y-128949727D01*
X149334853Y-128688574D01*
X149390000Y-128411335D01*
X149390000Y-128128665D01*
X149334853Y-127851426D01*
X149226680Y-127590273D01*
X149069637Y-127355241D01*
X148869759Y-127155363D01*
X148634727Y-126998320D01*
X148373574Y-126890147D01*
X148096335Y-126835000D01*
X147813665Y-126835000D01*
X147536426Y-126890147D01*
X147275273Y-126998320D01*
X147040241Y-127155363D01*
X146840363Y-127355241D01*
X146738293Y-127508000D01*
X138467423Y-127508000D01*
X138430000Y-127504314D01*
X138392577Y-127508000D01*
X138392574Y-127508000D01*
X138280622Y-127519026D01*
X138164743Y-127554178D01*
X137932592Y-127508000D01*
X137729630Y-127508000D01*
X141054012Y-124183619D01*
X141152296Y-124281903D01*
X140908329Y-124353486D01*
X140787429Y-124608996D01*
X140718700Y-124883184D01*
X140704783Y-125165512D01*
X140746213Y-125445130D01*
X140841397Y-125711292D01*
X140908329Y-125836514D01*
X141152298Y-125908097D01*
X141965395Y-125095000D01*
X141951253Y-125080858D01*
X142130858Y-124901253D01*
X142145000Y-124915395D01*
X142159143Y-124901253D01*
X142338748Y-125080858D01*
X142324605Y-125095000D01*
X142338748Y-125109143D01*
X142159143Y-125288748D01*
X142145000Y-125274605D01*
X141331903Y-126087702D01*
X141403486Y-126331671D01*
X141658996Y-126452571D01*
X141933184Y-126521300D01*
X142215512Y-126535217D01*
X142495130Y-126493787D01*
X142761292Y-126398603D01*
X142883309Y-126333384D01*
X142893815Y-126346185D01*
X142990506Y-126425537D01*
X143100820Y-126484502D01*
X143220518Y-126520812D01*
X143345000Y-126533072D01*
X144945000Y-126533072D01*
X145069482Y-126520812D01*
X145189180Y-126484502D01*
X145299494Y-126425537D01*
X145396185Y-126346185D01*
X145475537Y-126249494D01*
X145534502Y-126139180D01*
X145570812Y-126019482D01*
X145583072Y-125895000D01*
X145583072Y-124295000D01*
X145570812Y-124170518D01*
X145534502Y-124050820D01*
X145475537Y-123940506D01*
X145396185Y-123843815D01*
X145299494Y-123764463D01*
X145189180Y-123705498D01*
X145069482Y-123669188D01*
X144945000Y-123656928D01*
X143345000Y-123656928D01*
X143220518Y-123669188D01*
X143100820Y-123705498D01*
X142990506Y-123764463D01*
X142893815Y-123843815D01*
X142883193Y-123856758D01*
X142631004Y-123737429D01*
X142356816Y-123668700D01*
X142074488Y-123654783D01*
X141794870Y-123696213D01*
X141528708Y-123791397D01*
X141403486Y-123858329D01*
X141331903Y-124102296D01*
X141233619Y-124004012D01*
X142117353Y-123120278D01*
X142146422Y-123096422D01*
X142241645Y-122980392D01*
X142312402Y-122848015D01*
X142355974Y-122704378D01*
X142367000Y-122592426D01*
X142367000Y-122592424D01*
X142370686Y-122555001D01*
X142367000Y-122517578D01*
X142367000Y-121602702D01*
X152221903Y-121602702D01*
X152293486Y-121846671D01*
X152548996Y-121967571D01*
X152823184Y-122036300D01*
X153105512Y-122050217D01*
X153385130Y-122008787D01*
X153651292Y-121913603D01*
X153776514Y-121846671D01*
X153848097Y-121602702D01*
X153035000Y-120789605D01*
X152221903Y-121602702D01*
X142367000Y-121602702D01*
X142367000Y-120680512D01*
X151594783Y-120680512D01*
X151636213Y-120960130D01*
X151731397Y-121226292D01*
X151798329Y-121351514D01*
X152042298Y-121423097D01*
X152855395Y-120610000D01*
X153214605Y-120610000D01*
X154027702Y-121423097D01*
X154271671Y-121351514D01*
X154392571Y-121096004D01*
X154461300Y-120821816D01*
X154475217Y-120539488D01*
X154433787Y-120259870D01*
X154338603Y-119993708D01*
X154271671Y-119868486D01*
X154027702Y-119796903D01*
X153214605Y-120610000D01*
X152855395Y-120610000D01*
X152042298Y-119796903D01*
X151798329Y-119868486D01*
X151677429Y-120123996D01*
X151608700Y-120398184D01*
X151594783Y-120680512D01*
X142367000Y-120680512D01*
X142367000Y-114249832D01*
X142406101Y-114228932D01*
X142624608Y-114049608D01*
X142803932Y-113831101D01*
X142937182Y-113581808D01*
X142998690Y-113379040D01*
X143388091Y-113379040D01*
X143482930Y-113643881D01*
X143627615Y-113885131D01*
X143816586Y-114093519D01*
X144042580Y-114261037D01*
X144296913Y-114381246D01*
X144430961Y-114421904D01*
X144653000Y-114299915D01*
X144653000Y-113157000D01*
X144907000Y-113157000D01*
X144907000Y-114299915D01*
X145129039Y-114421904D01*
X145263087Y-114381246D01*
X145517420Y-114261037D01*
X145743414Y-114093519D01*
X145932385Y-113885131D01*
X146077070Y-113643881D01*
X146171909Y-113379040D01*
X146050624Y-113157000D01*
X144907000Y-113157000D01*
X144653000Y-113157000D01*
X143509376Y-113157000D01*
X143388091Y-113379040D01*
X142998690Y-113379040D01*
X143019236Y-113311309D01*
X143046943Y-113030000D01*
X143019236Y-112748691D01*
X142998691Y-112680960D01*
X143388091Y-112680960D01*
X143509376Y-112903000D01*
X144653000Y-112903000D01*
X144653000Y-111760085D01*
X144907000Y-111760085D01*
X144907000Y-112903000D01*
X146050624Y-112903000D01*
X146171909Y-112680960D01*
X146077070Y-112416119D01*
X145932385Y-112174869D01*
X145743414Y-111966481D01*
X145517420Y-111798963D01*
X145263087Y-111678754D01*
X145129039Y-111638096D01*
X144907000Y-111760085D01*
X144653000Y-111760085D01*
X144430961Y-111638096D01*
X144296913Y-111678754D01*
X144042580Y-111798963D01*
X143816586Y-111966481D01*
X143627615Y-112174869D01*
X143482930Y-112416119D01*
X143388091Y-112680960D01*
X142998691Y-112680960D01*
X142937182Y-112478192D01*
X142803932Y-112228899D01*
X142624608Y-112010392D01*
X142406101Y-111831068D01*
X142156808Y-111697818D01*
X141886309Y-111615764D01*
X141675492Y-111595000D01*
X141534508Y-111595000D01*
X141323691Y-111615764D01*
X141053192Y-111697818D01*
X140803899Y-111831068D01*
X140585392Y-112010392D01*
X140406068Y-112228899D01*
X140272818Y-112478192D01*
X140190764Y-112748691D01*
X140163057Y-113030000D01*
X140190764Y-113311309D01*
X140272818Y-113581808D01*
X140406068Y-113831101D01*
X140585392Y-114049608D01*
X140803899Y-114228932D01*
X140843001Y-114249832D01*
X140843000Y-122239369D01*
X135544211Y-127538159D01*
X135392592Y-127508000D01*
X135117408Y-127508000D01*
X134847510Y-127561686D01*
X134593273Y-127666995D01*
X134364465Y-127819880D01*
X134169880Y-128014465D01*
X134016995Y-128243273D01*
X133985000Y-128320515D01*
X133953005Y-128243273D01*
X133800120Y-128014465D01*
X133605535Y-127819880D01*
X133477000Y-127733995D01*
X133477000Y-124140630D01*
X134965789Y-122651841D01*
X135117408Y-122682000D01*
X135392592Y-122682000D01*
X135662490Y-122628314D01*
X135916727Y-122523005D01*
X136145535Y-122370120D01*
X136340120Y-122175535D01*
X136493005Y-121946727D01*
X136496184Y-121939052D01*
X136528750Y-121921645D01*
X136542076Y-121910709D01*
X136556995Y-121946727D01*
X136709880Y-122175535D01*
X136904465Y-122370120D01*
X137133273Y-122523005D01*
X137387510Y-122628314D01*
X137657408Y-122682000D01*
X137932592Y-122682000D01*
X138202490Y-122628314D01*
X138456727Y-122523005D01*
X138685535Y-122370120D01*
X138880120Y-122175535D01*
X139033005Y-121946727D01*
X139138314Y-121692490D01*
X139192000Y-121422592D01*
X139192000Y-121147408D01*
X139138314Y-120877510D01*
X139033005Y-120623273D01*
X138880120Y-120394465D01*
X138685535Y-120199880D01*
X138456727Y-120046995D01*
X138202490Y-119941686D01*
X137932592Y-119888000D01*
X137729631Y-119888000D01*
X138942353Y-118675278D01*
X138971422Y-118651422D01*
X139066645Y-118535392D01*
X139137402Y-118403015D01*
X139180974Y-118259378D01*
X139192000Y-118147426D01*
X139192000Y-118147424D01*
X139195686Y-118110001D01*
X139192000Y-118072578D01*
X139192000Y-114249832D01*
X139231101Y-114228932D01*
X139449608Y-114049608D01*
X139628932Y-113831101D01*
X139762182Y-113581808D01*
X139844236Y-113311309D01*
X139871943Y-113030000D01*
X139844236Y-112748691D01*
X139762182Y-112478192D01*
X139628932Y-112228899D01*
X139449608Y-112010392D01*
X139231101Y-111831068D01*
X138981808Y-111697818D01*
X138711309Y-111615764D01*
X138500492Y-111595000D01*
X138359508Y-111595000D01*
X138148691Y-111615764D01*
X137878192Y-111697818D01*
X137628899Y-111831068D01*
X137410392Y-112010392D01*
X137231068Y-112228899D01*
X137097818Y-112478192D01*
X137015764Y-112748691D01*
X136988057Y-113030000D01*
X137015764Y-113311309D01*
X137097818Y-113581808D01*
X137231068Y-113831101D01*
X137410392Y-114049608D01*
X137628899Y-114228932D01*
X137668001Y-114249832D01*
X137668000Y-117794369D01*
X135544211Y-119918159D01*
X135392592Y-119888000D01*
X135117408Y-119888000D01*
X134847510Y-119941686D01*
X134593273Y-120046995D01*
X134364465Y-120199880D01*
X134169880Y-120394465D01*
X134016995Y-120623273D01*
X133985000Y-120700515D01*
X133953005Y-120623273D01*
X133800120Y-120394465D01*
X133605535Y-120199880D01*
X133376727Y-120046995D01*
X133122490Y-119941686D01*
X132852592Y-119888000D01*
X132842000Y-119888000D01*
X132842000Y-114249832D01*
X132881101Y-114228932D01*
X133099608Y-114049608D01*
X133278932Y-113831101D01*
X133412182Y-113581808D01*
X133494236Y-113311309D01*
X133521943Y-113030000D01*
X133494236Y-112748691D01*
X133412182Y-112478192D01*
X133278932Y-112228899D01*
X133099608Y-112010392D01*
X132993950Y-111923680D01*
X138108474Y-106809157D01*
X138288665Y-106845000D01*
X138571335Y-106845000D01*
X138848574Y-106789853D01*
X139109727Y-106681680D01*
X139192001Y-106626707D01*
X139192001Y-108015369D01*
X135578736Y-111628634D01*
X135536309Y-111615764D01*
X135325492Y-111595000D01*
X135184508Y-111595000D01*
X134973691Y-111615764D01*
X134703192Y-111697818D01*
X134453899Y-111831068D01*
X134235392Y-112010392D01*
X134056068Y-112228899D01*
X133922818Y-112478192D01*
X133840764Y-112748691D01*
X133813057Y-113030000D01*
X133840764Y-113311309D01*
X133922818Y-113581808D01*
X134056068Y-113831101D01*
X134235392Y-114049608D01*
X134453899Y-114228932D01*
X134703192Y-114362182D01*
X134973691Y-114444236D01*
X135184508Y-114465000D01*
X135325492Y-114465000D01*
X135536309Y-114444236D01*
X135806808Y-114362182D01*
X136056101Y-114228932D01*
X136274608Y-114049608D01*
X136453932Y-113831101D01*
X136587182Y-113581808D01*
X136669236Y-113311309D01*
X136696943Y-113030000D01*
X136669236Y-112748691D01*
X136656366Y-112706264D01*
X140466346Y-108896284D01*
X140495422Y-108872422D01*
X140555857Y-108798781D01*
X140590645Y-108756393D01*
X140661401Y-108624016D01*
X140661402Y-108624015D01*
X140704974Y-108480378D01*
X140716000Y-108368426D01*
X140716000Y-108368423D01*
X140719686Y-108331000D01*
X140716000Y-108293577D01*
X140716000Y-106541849D01*
X140925273Y-106681680D01*
X141186426Y-106789853D01*
X141463665Y-106845000D01*
X141746335Y-106845000D01*
X142023574Y-106789853D01*
X142284727Y-106681680D01*
X142519759Y-106524637D01*
X142719637Y-106324759D01*
X142821707Y-106172000D01*
X143563293Y-106172000D01*
X143665363Y-106324759D01*
X143865241Y-106524637D01*
X144018000Y-106626707D01*
X144018001Y-109817567D01*
X144014314Y-109855000D01*
X144029027Y-110004378D01*
X144072599Y-110148015D01*
X144143355Y-110280392D01*
X144214721Y-110367351D01*
X144238579Y-110396422D01*
X144267649Y-110420279D01*
X146553634Y-112706265D01*
X146540764Y-112748691D01*
X146513057Y-113030000D01*
X146540764Y-113311309D01*
X146622818Y-113581808D01*
X146756068Y-113831101D01*
X146935392Y-114049608D01*
X147153899Y-114228932D01*
X147403192Y-114362182D01*
X147673691Y-114444236D01*
X147884508Y-114465000D01*
X148025492Y-114465000D01*
X148236309Y-114444236D01*
X148278736Y-114431366D01*
X151596928Y-117749559D01*
X151596928Y-118910000D01*
X151609188Y-119034482D01*
X151645498Y-119154180D01*
X151704463Y-119264494D01*
X151783815Y-119361185D01*
X151880506Y-119440537D01*
X151990820Y-119499502D01*
X152110518Y-119535812D01*
X152235000Y-119548072D01*
X152242215Y-119548072D01*
X152221903Y-119617298D01*
X153035000Y-120430395D01*
X153848097Y-119617298D01*
X153827785Y-119548072D01*
X153835000Y-119548072D01*
X153959482Y-119535812D01*
X154079180Y-119499502D01*
X154189494Y-119440537D01*
X154286185Y-119361185D01*
X154365537Y-119264494D01*
X154424502Y-119154180D01*
X154460812Y-119034482D01*
X154473072Y-118910000D01*
X154473072Y-117310000D01*
X154460812Y-117185518D01*
X154424502Y-117065820D01*
X154365537Y-116955506D01*
X154286185Y-116858815D01*
X154189494Y-116779463D01*
X154079180Y-116720498D01*
X153959482Y-116684188D01*
X153835000Y-116671928D01*
X152674559Y-116671928D01*
X149356366Y-113353736D01*
X149369236Y-113311309D01*
X149396943Y-113030000D01*
X149369236Y-112748691D01*
X149287182Y-112478192D01*
X149153932Y-112228899D01*
X148974608Y-112010392D01*
X148756101Y-111831068D01*
X148506808Y-111697818D01*
X148236309Y-111615764D01*
X148025492Y-111595000D01*
X147884508Y-111595000D01*
X147673691Y-111615764D01*
X147631265Y-111628634D01*
X145542000Y-109539370D01*
X145542000Y-109085000D01*
X152281928Y-109085000D01*
X152294188Y-109209482D01*
X152330498Y-109329180D01*
X152389463Y-109439494D01*
X152468815Y-109536185D01*
X152565506Y-109615537D01*
X152675820Y-109674502D01*
X152795518Y-109710812D01*
X152920000Y-109723072D01*
X153384250Y-109720000D01*
X153543000Y-109561250D01*
X153543000Y-108712000D01*
X153797000Y-108712000D01*
X153797000Y-109561250D01*
X153955750Y-109720000D01*
X154420000Y-109723072D01*
X154544482Y-109710812D01*
X154664180Y-109674502D01*
X154774494Y-109615537D01*
X154871185Y-109536185D01*
X154950537Y-109439494D01*
X155009502Y-109329180D01*
X155045812Y-109209482D01*
X155058072Y-109085000D01*
X155055000Y-108870750D01*
X154896250Y-108712000D01*
X153797000Y-108712000D01*
X153543000Y-108712000D01*
X152443750Y-108712000D01*
X152285000Y-108870750D01*
X152281928Y-109085000D01*
X145542000Y-109085000D01*
X145542000Y-106626707D01*
X145694759Y-106524637D01*
X145894637Y-106324759D01*
X146051680Y-106089727D01*
X146159853Y-105828574D01*
X146215000Y-105551335D01*
X146215000Y-105268665D01*
X146520000Y-105268665D01*
X146520000Y-105551335D01*
X146575147Y-105828574D01*
X146683320Y-106089727D01*
X146840363Y-106324759D01*
X147040241Y-106524637D01*
X147275273Y-106681680D01*
X147536426Y-106789853D01*
X147813665Y-106845000D01*
X148096335Y-106845000D01*
X148276527Y-106809157D01*
X149294721Y-107827352D01*
X149318578Y-107856422D01*
X149347648Y-107880279D01*
X149434607Y-107951645D01*
X149505364Y-107989465D01*
X149566985Y-108022402D01*
X149710622Y-108065974D01*
X149822574Y-108077000D01*
X149822577Y-108077000D01*
X149860000Y-108080686D01*
X149897423Y-108077000D01*
X152282716Y-108077000D01*
X152281928Y-108085000D01*
X152285000Y-108299250D01*
X152443750Y-108458000D01*
X153543000Y-108458000D01*
X153543000Y-108450000D01*
X153797000Y-108450000D01*
X153797000Y-108458000D01*
X154896250Y-108458000D01*
X155055000Y-108299250D01*
X155058072Y-108085000D01*
X155045812Y-107960518D01*
X155009502Y-107840820D01*
X154967703Y-107762621D01*
X154973676Y-107751447D01*
X155038577Y-107537499D01*
X155060491Y-107315000D01*
X155038577Y-107092501D01*
X154973676Y-106878553D01*
X154868284Y-106681377D01*
X154867154Y-106680000D01*
X154868284Y-106678623D01*
X154973676Y-106481447D01*
X155038577Y-106267499D01*
X155060491Y-106045000D01*
X155038577Y-105822501D01*
X154973676Y-105608553D01*
X154868284Y-105411377D01*
X154726449Y-105238551D01*
X154553623Y-105096716D01*
X154356447Y-104991324D01*
X154142499Y-104926423D01*
X153975752Y-104910000D01*
X153364248Y-104910000D01*
X153197501Y-104926423D01*
X152983553Y-104991324D01*
X152786377Y-105096716D01*
X152613551Y-105238551D01*
X152471716Y-105411377D01*
X152366324Y-105608553D01*
X152301423Y-105822501D01*
X152279509Y-106045000D01*
X152301423Y-106267499D01*
X152366324Y-106481447D01*
X152404570Y-106553000D01*
X150175631Y-106553000D01*
X149354157Y-105731527D01*
X149390000Y-105551335D01*
X149390000Y-105268665D01*
X149334853Y-104991426D01*
X149226680Y-104730273D01*
X149069637Y-104495241D01*
X148869759Y-104295363D01*
X148634727Y-104138320D01*
X148373574Y-104030147D01*
X148096335Y-103975000D01*
X147813665Y-103975000D01*
X147536426Y-104030147D01*
X147275273Y-104138320D01*
X147040241Y-104295363D01*
X146840363Y-104495241D01*
X146683320Y-104730273D01*
X146575147Y-104991426D01*
X146520000Y-105268665D01*
X146215000Y-105268665D01*
X146159853Y-104991426D01*
X146051680Y-104730273D01*
X145894637Y-104495241D01*
X145694759Y-104295363D01*
X145459727Y-104138320D01*
X145198574Y-104030147D01*
X144921335Y-103975000D01*
X144638665Y-103975000D01*
X144361426Y-104030147D01*
X144100273Y-104138320D01*
X143865241Y-104295363D01*
X143665363Y-104495241D01*
X143563293Y-104648000D01*
X142821707Y-104648000D01*
X142719637Y-104495241D01*
X142519759Y-104295363D01*
X142284727Y-104138320D01*
X142023574Y-104030147D01*
X141746335Y-103975000D01*
X141463665Y-103975000D01*
X141186426Y-104030147D01*
X140925273Y-104138320D01*
X140716000Y-104278151D01*
X140716000Y-100137630D01*
X149356346Y-91497284D01*
X149385422Y-91473422D01*
X149445857Y-91399781D01*
X149480645Y-91357393D01*
X149551401Y-91225016D01*
X149551402Y-91225015D01*
X149594974Y-91081378D01*
X149606000Y-90969426D01*
X149606000Y-90969423D01*
X149609686Y-90932000D01*
X149606000Y-90894577D01*
X149606000Y-86172976D01*
X149822505Y-86028312D01*
X150036312Y-85814505D01*
X150204299Y-85563095D01*
X150320011Y-85283743D01*
X150379000Y-84987184D01*
X150379000Y-84684816D01*
X150320011Y-84388257D01*
X150204299Y-84108905D01*
X150036312Y-83857495D01*
X149969873Y-83791056D01*
X149988180Y-83785502D01*
X150098494Y-83726537D01*
X150195185Y-83647185D01*
X150274537Y-83550494D01*
X150333502Y-83440180D01*
X150369812Y-83320482D01*
X150382072Y-83196000D01*
X150382072Y-81396000D01*
X150369812Y-81271518D01*
X150333502Y-81151820D01*
X150274537Y-81041506D01*
X150195185Y-80944815D01*
X150098494Y-80865463D01*
X149988180Y-80806498D01*
X149868482Y-80770188D01*
X149744000Y-80757928D01*
X147944000Y-80757928D01*
X147819518Y-80770188D01*
X147699820Y-80806498D01*
X147589506Y-80865463D01*
X147492815Y-80944815D01*
X147413463Y-81041506D01*
X147354498Y-81151820D01*
X147318188Y-81271518D01*
X147305928Y-81396000D01*
X147305928Y-83196000D01*
X147318188Y-83320482D01*
X147354498Y-83440180D01*
X147413463Y-83550494D01*
X147492815Y-83647185D01*
X147589506Y-83726537D01*
X147699820Y-83785502D01*
X147718127Y-83791056D01*
X147651688Y-83857495D01*
X147483701Y-84108905D01*
X147367989Y-84388257D01*
X147309000Y-84684816D01*
X147309000Y-84987184D01*
X147367989Y-85283743D01*
X147483701Y-85563095D01*
X147651688Y-85814505D01*
X147865495Y-86028312D01*
X148082000Y-86172976D01*
X148082001Y-90616369D01*
X139441654Y-99256716D01*
X139412578Y-99280578D01*
X139356983Y-99348322D01*
X139317355Y-99396608D01*
X139279535Y-99467365D01*
X139246598Y-99528986D01*
X139203026Y-99672623D01*
X139192000Y-99784574D01*
X139188314Y-99822000D01*
X139192000Y-99859423D01*
X139192001Y-104193293D01*
X139109727Y-104138320D01*
X138848574Y-104030147D01*
X138571335Y-103975000D01*
X138288665Y-103975000D01*
X138011426Y-104030147D01*
X137750273Y-104138320D01*
X137515241Y-104295363D01*
X137315363Y-104495241D01*
X137158320Y-104730273D01*
X137050147Y-104991426D01*
X136995000Y-105268665D01*
X136995000Y-105551335D01*
X137030843Y-105731526D01*
X131567649Y-111194721D01*
X131538579Y-111218578D01*
X131514722Y-111247648D01*
X131514721Y-111247649D01*
X131443355Y-111334608D01*
X131372599Y-111466985D01*
X131329027Y-111610622D01*
X131314314Y-111760000D01*
X131318001Y-111797433D01*
X131318001Y-111810168D01*
X131278899Y-111831068D01*
X131060392Y-112010392D01*
X130881068Y-112228899D01*
X130747818Y-112478192D01*
X130745904Y-112484502D01*
X130716422Y-112448578D01*
X130687353Y-112424722D01*
X129161722Y-110899091D01*
X129220000Y-110606109D01*
X129220000Y-110293891D01*
X129161722Y-110000909D01*
X132341542Y-106821089D01*
X132498574Y-106789853D01*
X132759727Y-106681680D01*
X132994759Y-106524637D01*
X133194637Y-106324759D01*
X133296707Y-106172000D01*
X134038293Y-106172000D01*
X134140363Y-106324759D01*
X134340241Y-106524637D01*
X134575273Y-106681680D01*
X134836426Y-106789853D01*
X135113665Y-106845000D01*
X135396335Y-106845000D01*
X135673574Y-106789853D01*
X135934727Y-106681680D01*
X136169759Y-106524637D01*
X136369637Y-106324759D01*
X136526680Y-106089727D01*
X136634853Y-105828574D01*
X136690000Y-105551335D01*
X136690000Y-105268665D01*
X136634853Y-104991426D01*
X136526680Y-104730273D01*
X136369637Y-104495241D01*
X136169759Y-104295363D01*
X135934727Y-104138320D01*
X135673574Y-104030147D01*
X135396335Y-103975000D01*
X135113665Y-103975000D01*
X134836426Y-104030147D01*
X134575273Y-104138320D01*
X134340241Y-104295363D01*
X134140363Y-104495241D01*
X134038293Y-104648000D01*
X133296707Y-104648000D01*
X133194637Y-104495241D01*
X132994759Y-104295363D01*
X132759727Y-104138320D01*
X132498574Y-104030147D01*
X132221335Y-103975000D01*
X131938665Y-103975000D01*
X131661426Y-104030147D01*
X131400273Y-104138320D01*
X131165241Y-104295363D01*
X130965363Y-104495241D01*
X130808320Y-104730273D01*
X130700147Y-104991426D01*
X130645000Y-105268665D01*
X130645000Y-105551335D01*
X130700147Y-105828574D01*
X130808320Y-106089727D01*
X130852108Y-106155261D01*
X129223072Y-107784298D01*
X129223072Y-107000000D01*
X129210812Y-106875518D01*
X129174502Y-106755820D01*
X129115537Y-106645506D01*
X129036185Y-106548815D01*
X128939494Y-106469463D01*
X128829180Y-106410498D01*
X128709482Y-106374188D01*
X128585000Y-106361928D01*
X126685000Y-106361928D01*
X126560518Y-106374188D01*
X126440820Y-106410498D01*
X126330506Y-106469463D01*
X126233815Y-106548815D01*
X126154463Y-106645506D01*
X126095498Y-106755820D01*
X126059188Y-106875518D01*
X126046928Y-107000000D01*
X126046928Y-108900000D01*
X126059188Y-109024482D01*
X126095498Y-109144180D01*
X126154463Y-109254494D01*
X126233815Y-109351185D01*
X126330506Y-109430537D01*
X126389021Y-109461814D01*
X126230391Y-109699221D01*
X126110911Y-109987673D01*
X126050000Y-110293891D01*
X126050000Y-110606109D01*
X126110911Y-110912327D01*
X126230391Y-111200779D01*
X126403850Y-111460379D01*
X126624621Y-111681150D01*
X126652832Y-111700000D01*
X126624621Y-111718850D01*
X126403850Y-111939621D01*
X126237889Y-112188000D01*
X121200631Y-112188000D01*
X115423347Y-106410717D01*
X115477561Y-106279834D01*
X115550000Y-105915656D01*
X115550000Y-105544344D01*
X115477561Y-105180166D01*
X115335466Y-104837118D01*
X115129175Y-104528382D01*
X114866618Y-104265825D01*
X114557882Y-104059534D01*
X114214834Y-103917439D01*
X113850656Y-103845000D01*
X113479344Y-103845000D01*
X113115166Y-103917439D01*
X112772118Y-104059534D01*
X112463382Y-104265825D01*
X112200825Y-104528382D01*
X111994534Y-104837118D01*
X111852439Y-105180166D01*
X111780000Y-105544344D01*
X111780000Y-105915656D01*
X111852439Y-106279834D01*
X111994534Y-106622882D01*
X112200825Y-106931618D01*
X112463382Y-107194175D01*
X112772118Y-107400466D01*
X113115166Y-107542561D01*
X113479344Y-107615000D01*
X113850656Y-107615000D01*
X114214834Y-107542561D01*
X114345717Y-107488347D01*
X120319721Y-113462352D01*
X120343578Y-113491422D01*
X120372648Y-113515279D01*
X120459607Y-113586645D01*
X120530364Y-113624465D01*
X120591985Y-113657402D01*
X120735622Y-113700974D01*
X120847574Y-113712000D01*
X120847577Y-113712000D01*
X120885000Y-113715686D01*
X120922423Y-113712000D01*
X126237889Y-113712000D01*
X126403850Y-113960379D01*
X126624621Y-114181150D01*
X126884221Y-114354609D01*
X127172673Y-114474089D01*
X127478891Y-114535000D01*
X127791109Y-114535000D01*
X128097327Y-114474089D01*
X128385779Y-114354609D01*
X128645379Y-114181150D01*
X128866150Y-113960379D01*
X129039609Y-113700779D01*
X129159089Y-113412327D01*
X129218918Y-113111549D01*
X129413000Y-113305631D01*
X129413001Y-120113995D01*
X129284465Y-120199880D01*
X129089880Y-120394465D01*
X128936995Y-120623273D01*
X128831686Y-120877510D01*
X128778000Y-121147408D01*
X128778000Y-121422592D01*
X128831686Y-121692490D01*
X128936995Y-121946727D01*
X129089880Y-122175535D01*
X129284465Y-122370120D01*
X129513273Y-122523005D01*
X129767510Y-122628314D01*
X130037408Y-122682000D01*
X130312592Y-122682000D01*
X130582490Y-122628314D01*
X130836727Y-122523005D01*
X131065535Y-122370120D01*
X131260120Y-122175535D01*
X131413005Y-121946727D01*
X131445000Y-121869485D01*
X131476995Y-121946727D01*
X131629880Y-122175535D01*
X131824465Y-122370120D01*
X132053273Y-122523005D01*
X132307510Y-122628314D01*
X132577408Y-122682000D01*
X132780370Y-122682000D01*
X132202649Y-123259721D01*
X132173579Y-123283578D01*
X132149722Y-123312648D01*
X132149721Y-123312649D01*
X132078355Y-123399608D01*
X132007599Y-123531985D01*
X131964027Y-123675622D01*
X131949314Y-123825000D01*
X131953001Y-123862433D01*
X131953000Y-127733995D01*
X131824465Y-127819880D01*
X131629880Y-128014465D01*
X131476995Y-128243273D01*
X131447308Y-128314943D01*
X131442636Y-128301977D01*
X131380656Y-128186020D01*
X131140565Y-128119040D01*
X130354605Y-128905000D01*
X131140565Y-129690960D01*
X131380656Y-129623980D01*
X131444485Y-129488240D01*
X131476995Y-129566727D01*
X131629880Y-129795535D01*
X131824465Y-129990120D01*
X132053273Y-130143005D01*
X132099855Y-130162300D01*
X130797360Y-130162300D01*
X130893980Y-130110656D01*
X130960960Y-129870565D01*
X130175000Y-129084605D01*
X129389040Y-129870565D01*
X129456020Y-130110656D01*
X129565848Y-130162300D01*
X102247700Y-130162300D01*
X102247700Y-128977017D01*
X128773090Y-128977017D01*
X128814078Y-129249133D01*
X128907364Y-129508023D01*
X128969344Y-129623980D01*
X129209435Y-129690960D01*
X129995395Y-128905000D01*
X129209435Y-128119040D01*
X128969344Y-128186020D01*
X128852244Y-128435048D01*
X128785977Y-128702135D01*
X128773090Y-128977017D01*
X102247700Y-128977017D01*
X102247700Y-127939435D01*
X129389040Y-127939435D01*
X130175000Y-128725395D01*
X130960960Y-127939435D01*
X130893980Y-127699344D01*
X130644952Y-127582244D01*
X130377865Y-127515977D01*
X130102983Y-127503090D01*
X129830867Y-127544078D01*
X129571977Y-127637364D01*
X129456020Y-127699344D01*
X129389040Y-127939435D01*
X102247700Y-127939435D01*
X102247700Y-126815000D01*
X111941928Y-126815000D01*
X111954188Y-126939482D01*
X111990498Y-127059180D01*
X112049463Y-127169494D01*
X112128815Y-127266185D01*
X112225506Y-127345537D01*
X112335820Y-127404502D01*
X112455518Y-127440812D01*
X112580000Y-127453072D01*
X113379250Y-127450000D01*
X113538000Y-127291250D01*
X113538000Y-125857000D01*
X113792000Y-125857000D01*
X113792000Y-127291250D01*
X113950750Y-127450000D01*
X114750000Y-127453072D01*
X114874482Y-127440812D01*
X114994180Y-127404502D01*
X115104494Y-127345537D01*
X115201185Y-127266185D01*
X115280537Y-127169494D01*
X115339502Y-127059180D01*
X115375812Y-126939482D01*
X115388072Y-126815000D01*
X115385000Y-126015750D01*
X115226250Y-125857000D01*
X113792000Y-125857000D01*
X113538000Y-125857000D01*
X112103750Y-125857000D01*
X111945000Y-126015750D01*
X111941928Y-126815000D01*
X102247700Y-126815000D01*
X102247700Y-124645000D01*
X111941928Y-124645000D01*
X111945000Y-125444250D01*
X112103750Y-125603000D01*
X113538000Y-125603000D01*
X113538000Y-124168750D01*
X113792000Y-124168750D01*
X113792000Y-125603000D01*
X115226250Y-125603000D01*
X115385000Y-125444250D01*
X115388072Y-124645000D01*
X115375812Y-124520518D01*
X115339502Y-124400820D01*
X115280537Y-124290506D01*
X115201185Y-124193815D01*
X115104494Y-124114463D01*
X114994180Y-124055498D01*
X114874482Y-124019188D01*
X114750000Y-124006928D01*
X113950750Y-124010000D01*
X113792000Y-124168750D01*
X113538000Y-124168750D01*
X113379250Y-124010000D01*
X112580000Y-124006928D01*
X112455518Y-124019188D01*
X112335820Y-124055498D01*
X112225506Y-124114463D01*
X112128815Y-124193815D01*
X112049463Y-124290506D01*
X111990498Y-124400820D01*
X111954188Y-124520518D01*
X111941928Y-124645000D01*
X102247700Y-124645000D01*
X102247700Y-81396000D01*
X107681928Y-81396000D01*
X107681928Y-83196000D01*
X107694188Y-83320482D01*
X107730498Y-83440180D01*
X107789463Y-83550494D01*
X107868815Y-83647185D01*
X107965506Y-83726537D01*
X108075820Y-83785502D01*
X108094127Y-83791056D01*
X108027688Y-83857495D01*
X107859701Y-84108905D01*
X107743989Y-84388257D01*
X107685000Y-84684816D01*
X107685000Y-84987184D01*
X107743989Y-85283743D01*
X107859701Y-85563095D01*
X108027688Y-85814505D01*
X108241495Y-86028312D01*
X108492905Y-86196299D01*
X108772257Y-86312011D01*
X109068816Y-86371000D01*
X109371184Y-86371000D01*
X109667743Y-86312011D01*
X109947095Y-86196299D01*
X110198505Y-86028312D01*
X110412312Y-85814505D01*
X110580299Y-85563095D01*
X110696011Y-85283743D01*
X110755000Y-84987184D01*
X110755000Y-84684816D01*
X110696011Y-84388257D01*
X110580299Y-84108905D01*
X110412312Y-83857495D01*
X110345873Y-83791056D01*
X110364180Y-83785502D01*
X110474494Y-83726537D01*
X110571185Y-83647185D01*
X110650537Y-83550494D01*
X110709502Y-83440180D01*
X110745812Y-83320482D01*
X110758072Y-83196000D01*
X110758072Y-81396000D01*
X110745812Y-81271518D01*
X110709502Y-81151820D01*
X110650537Y-81041506D01*
X110571185Y-80944815D01*
X110474494Y-80865463D01*
X110364180Y-80806498D01*
X110244482Y-80770188D01*
X110120000Y-80757928D01*
X108320000Y-80757928D01*
X108195518Y-80770188D01*
X108075820Y-80806498D01*
X107965506Y-80865463D01*
X107868815Y-80944815D01*
X107789463Y-81041506D01*
X107730498Y-81151820D01*
X107694188Y-81271518D01*
X107681928Y-81396000D01*
X102247700Y-81396000D01*
X102247700Y-50754595D01*
X121465512Y-50754595D01*
X121465922Y-50813299D01*
X121465512Y-50872003D01*
X121466394Y-50881003D01*
X121505257Y-51250757D01*
X121517063Y-51308274D01*
X121528061Y-51365926D01*
X121530675Y-51374584D01*
X121640617Y-51729747D01*
X121663374Y-51783883D01*
X121685357Y-51838293D01*
X121689602Y-51846278D01*
X121866434Y-52173323D01*
X121899266Y-52221999D01*
X121931406Y-52271114D01*
X121937122Y-52278122D01*
X122174111Y-52564592D01*
X122215767Y-52605958D01*
X122256838Y-52647899D01*
X122263806Y-52653663D01*
X122551923Y-52888646D01*
X122600836Y-52921144D01*
X122649258Y-52954299D01*
X122657208Y-52958597D01*
X122657212Y-52958600D01*
X122657216Y-52958602D01*
X122985485Y-53133145D01*
X123039761Y-53155516D01*
X123093715Y-53178642D01*
X123102352Y-53181315D01*
X123102356Y-53181317D01*
X123102360Y-53181318D01*
X123458277Y-53288775D01*
X123515838Y-53300173D01*
X123573287Y-53312384D01*
X123582278Y-53313329D01*
X123582280Y-53313329D01*
X123952296Y-53349609D01*
X123952309Y-53349609D01*
X123983691Y-53352700D01*
X134207309Y-53352700D01*
X134240580Y-53349423D01*
X134265303Y-53349423D01*
X134274296Y-53348478D01*
X134643770Y-53307035D01*
X134701210Y-53294826D01*
X134758778Y-53283427D01*
X134767417Y-53280753D01*
X135121804Y-53168335D01*
X135175793Y-53145195D01*
X135230036Y-53122838D01*
X135237991Y-53118537D01*
X135563794Y-52939425D01*
X135612240Y-52906253D01*
X135661127Y-52873773D01*
X135668090Y-52868012D01*
X135668096Y-52868008D01*
X135668101Y-52868003D01*
X135952903Y-52629026D01*
X135993970Y-52587090D01*
X136035632Y-52545719D01*
X136041347Y-52538711D01*
X136274313Y-52248960D01*
X136306462Y-52199832D01*
X136339285Y-52151170D01*
X136343530Y-52143185D01*
X136515779Y-51813703D01*
X136537782Y-51759243D01*
X136560519Y-51705156D01*
X136563133Y-51696498D01*
X136668105Y-51339833D01*
X136679111Y-51282137D01*
X136690909Y-51224665D01*
X136691790Y-51215672D01*
X136691792Y-51215663D01*
X136691792Y-51215655D01*
X136725488Y-50845405D01*
X136725078Y-50786701D01*
X136725488Y-50727998D01*
X136724606Y-50718998D01*
X136685743Y-50349243D01*
X136673930Y-50291696D01*
X136662938Y-50234073D01*
X136660325Y-50225416D01*
X136550383Y-49870252D01*
X136527614Y-49816088D01*
X136505643Y-49761706D01*
X136501398Y-49753722D01*
X136324566Y-49426677D01*
X136291734Y-49378001D01*
X136259594Y-49328886D01*
X136253878Y-49321878D01*
X136016889Y-49035408D01*
X135975233Y-48994042D01*
X135934162Y-48952101D01*
X135927194Y-48946337D01*
X135639077Y-48711354D01*
X135590164Y-48678856D01*
X135541742Y-48645701D01*
X135533792Y-48641403D01*
X135533788Y-48641400D01*
X135533784Y-48641398D01*
X135205515Y-48466855D01*
X135151253Y-48444490D01*
X135097284Y-48421358D01*
X135088645Y-48418684D01*
X134732723Y-48311224D01*
X134675126Y-48299819D01*
X134617713Y-48287616D01*
X134608723Y-48286671D01*
X134608719Y-48286671D01*
X134238704Y-48250391D01*
X134238691Y-48250391D01*
X134207309Y-48247300D01*
X123983691Y-48247300D01*
X123950420Y-48250577D01*
X123925697Y-48250577D01*
X123916704Y-48251522D01*
X123547230Y-48292965D01*
X123489765Y-48305180D01*
X123432222Y-48316573D01*
X123423583Y-48319247D01*
X123069196Y-48431665D01*
X123015220Y-48454799D01*
X122960963Y-48477162D01*
X122953009Y-48481463D01*
X122627206Y-48660575D01*
X122578777Y-48693735D01*
X122529872Y-48726227D01*
X122522910Y-48731988D01*
X122522904Y-48731992D01*
X122522899Y-48731997D01*
X122238097Y-48970974D01*
X122197011Y-49012929D01*
X122155368Y-49054282D01*
X122149658Y-49061284D01*
X122149653Y-49061289D01*
X122149649Y-49061294D01*
X121916687Y-49351040D01*
X121884542Y-49400163D01*
X121851715Y-49448831D01*
X121847473Y-49456811D01*
X121847470Y-49456815D01*
X121847470Y-49456816D01*
X121675221Y-49786297D01*
X121653222Y-49840745D01*
X121630481Y-49894844D01*
X121627867Y-49903501D01*
X121522895Y-50260167D01*
X121511889Y-50317863D01*
X121500091Y-50375335D01*
X121499210Y-50384328D01*
X121499208Y-50384337D01*
X121499208Y-50384345D01*
X121465512Y-50754595D01*
X102247700Y-50754595D01*
X102247700Y-47002700D01*
X156197301Y-47002700D01*
X156197300Y-126975497D01*
M02*
