M48
; DRILL file {KiCad (5.1.4-0-10_14)} date Thursday, September 05, 2019 at 03:20:10 PM
; FORMAT={-:-/ absolute / inch / decimal}
; #@! TF.CreationDate,2019-09-05T15:20:10-04:00
; #@! TF.GenerationSoftware,Kicad,Pcbnew,(5.1.4-0-10_14)
; #@! TF.FileFunction,Plated,1,2,PTH
FMAT,2
INCH
T1C0.0217
T2C0.0300
T3C0.0315
T4C0.0354
T5C0.0461
T6C0.0591
%
G90
G05
T1
X6.05Y-4.175
X6.05Y-4.225
X6.05Y-4.275
T2
X5.125Y-4.775
X5.125Y-5.075
X5.225Y-4.775
X5.225Y-5.075
X5.325Y-4.775
X5.325Y-5.075
X5.425Y-4.775
X5.425Y-5.075
T3
X5.325Y-4.15
X5.325Y-4.45
X6.025Y-4.65
X6.025Y-4.7484
X5.825Y-5.05
X6.125Y-5.05
X5.5963Y-4.925
X5.675Y-4.925
X5.2Y-4.15
X5.2Y-4.45
X5.7Y-4.15
X5.7Y-4.45
X5.575Y-4.15
X5.575Y-4.45
X5.825Y-4.15
X5.825Y-4.45
X5.45Y-4.15
X5.45Y-4.45
T4
X5.86Y-3.24
X5.86Y-3.34
X4.3Y-3.24
X4.3Y-3.34
X5.025Y-4.25
X5.025Y-4.3484
X5.025Y-4.4469
T5
X4.475Y-4.95
T6
X4.475Y-4.1626
T0
M30
